<mxfile host="app.diagrams.net" agent="Mozilla/5.0 (X11; Linux x86_64; rv:138.0) Gecko/20100101 Firefox/138.0" version="27.1.6">
  <diagram name="Page-1" id="wWrDanpMsswWutIhGiB9">
    <mxGraphModel dx="3229" dy="2241" grid="1" gridSize="10" guides="1" tooltips="1" connect="1" arrows="1" fold="1" page="1" pageScale="1" pageWidth="850" pageHeight="1100" math="0" shadow="0">
      <root>
        <mxCell id="0" />
        <mxCell id="1" parent="0" />
        <mxCell id="bl3Llqr95cJkok5E-QFb-13" value="&lt;div&gt;Sequential Layer 2&lt;/div&gt;&lt;div&gt;&lt;br&gt;&lt;/div&gt;&lt;div&gt;&lt;br&gt;&lt;/div&gt;&lt;div&gt;&lt;br&gt;&lt;/div&gt;&lt;div&gt;&lt;br&gt;&lt;/div&gt;&lt;div&gt;&lt;br&gt;&lt;/div&gt;&lt;div&gt;&lt;br&gt;&lt;/div&gt;&lt;div&gt;&lt;br&gt;&lt;/div&gt;&lt;div&gt;&lt;br&gt;&lt;/div&gt;&lt;div&gt;&lt;br&gt;&lt;/div&gt;&lt;div&gt;&lt;br&gt;&lt;/div&gt;" style="rounded=1;whiteSpace=wrap;html=1;fillColor=#2491FF;" vertex="1" parent="1">
          <mxGeometry x="240" y="210" width="160" height="180" as="geometry" />
        </mxCell>
        <mxCell id="bl3Llqr95cJkok5E-QFb-15" value="&lt;div&gt;Sequential Layer 3&lt;/div&gt;&lt;div&gt;&lt;br&gt;&lt;/div&gt;&lt;div&gt;&lt;br&gt;&lt;/div&gt;&lt;div&gt;&lt;br&gt;&lt;/div&gt;&lt;div&gt;&lt;br&gt;&lt;/div&gt;&lt;div&gt;&lt;br&gt;&lt;/div&gt;&lt;div&gt;&lt;br&gt;&lt;/div&gt;&lt;div&gt;&lt;br&gt;&lt;/div&gt;&lt;div&gt;&lt;br&gt;&lt;/div&gt;&lt;div&gt;&lt;br&gt;&lt;/div&gt;&lt;div&gt;&lt;br&gt;&lt;/div&gt;&lt;div&gt;&lt;br&gt;&lt;/div&gt;&lt;div&gt;&lt;br&gt;&lt;/div&gt;&lt;div&gt;&lt;br&gt;&lt;/div&gt;&lt;div&gt;&lt;br&gt;&lt;/div&gt;&lt;div&gt;&lt;br&gt;&lt;/div&gt;&lt;div&gt;&lt;br&gt;&lt;/div&gt;&lt;div&gt;&lt;br&gt;&lt;/div&gt;&lt;div&gt;&lt;br&gt;&lt;/div&gt;&lt;div&gt;&lt;br&gt;&lt;/div&gt;" style="rounded=1;whiteSpace=wrap;html=1;fillColor=#2491FF;movable=1;resizable=1;rotatable=1;deletable=1;editable=1;locked=0;connectable=1;" vertex="1" parent="1">
          <mxGeometry x="240" y="472.5" width="160" height="320" as="geometry" />
        </mxCell>
        <mxCell id="bl3Llqr95cJkok5E-QFb-16" value="&lt;div&gt;Sequential Layer 4&lt;/div&gt;&lt;div&gt;&lt;br&gt;&lt;/div&gt;&lt;div&gt;&lt;br&gt;&lt;/div&gt;&lt;div&gt;&lt;br&gt;&lt;/div&gt;&lt;div&gt;&lt;br&gt;&lt;/div&gt;&lt;div&gt;&lt;br&gt;&lt;/div&gt;&lt;div&gt;&lt;br&gt;&lt;/div&gt;&lt;div&gt;&lt;br&gt;&lt;/div&gt;&lt;div&gt;&lt;br&gt;&lt;/div&gt;&lt;div&gt;&lt;br&gt;&lt;/div&gt;&lt;div&gt;&lt;br&gt;&lt;/div&gt;" style="rounded=1;whiteSpace=wrap;html=1;fillColor=#2491FF;movable=1;resizable=1;rotatable=1;deletable=1;editable=1;locked=0;connectable=1;" vertex="1" parent="1">
          <mxGeometry x="240" y="910" width="160" height="180" as="geometry" />
        </mxCell>
        <mxCell id="bl3Llqr95cJkok5E-QFb-14" value="&lt;div&gt;Sequential Layer 1&lt;/div&gt;&lt;div&gt;&lt;br&gt;&lt;/div&gt;&lt;div&gt;&lt;br&gt;&lt;/div&gt;&lt;div&gt;&lt;br&gt;&lt;/div&gt;&lt;div&gt;&lt;br&gt;&lt;/div&gt;&lt;div&gt;&lt;br&gt;&lt;/div&gt;&lt;div&gt;&lt;br&gt;&lt;/div&gt;&lt;div&gt;&lt;br&gt;&lt;/div&gt;&lt;div&gt;&lt;br&gt;&lt;/div&gt;&lt;div&gt;&lt;br&gt;&lt;/div&gt;&lt;div&gt;&lt;br&gt;&lt;/div&gt;" style="rounded=1;whiteSpace=wrap;html=1;fillColor=#2491FF;" vertex="1" parent="1">
          <mxGeometry x="240" y="-70" width="160" height="180" as="geometry" />
        </mxCell>
        <mxCell id="bl3Llqr95cJkok5E-QFb-64" style="edgeStyle=orthogonalEdgeStyle;rounded=0;orthogonalLoop=1;jettySize=auto;html=1;exitX=0.5;exitY=1;exitDx=0;exitDy=0;" edge="1" parent="1" target="bl3Llqr95cJkok5E-QFb-27">
          <mxGeometry relative="1" as="geometry">
            <mxPoint x="320" y="-2.5" as="sourcePoint" />
          </mxGeometry>
        </mxCell>
        <mxCell id="bl3Llqr95cJkok5E-QFb-21" style="edgeStyle=orthogonalEdgeStyle;rounded=0;orthogonalLoop=1;jettySize=auto;html=1;exitX=0.5;exitY=1;exitDx=0;exitDy=0;movable=1;resizable=1;rotatable=1;deletable=1;editable=1;locked=0;connectable=1;" edge="1" parent="1">
          <mxGeometry relative="1" as="geometry">
            <mxPoint x="320" y="910" as="sourcePoint" />
            <mxPoint x="320" y="910" as="targetPoint" />
          </mxGeometry>
        </mxCell>
        <mxCell id="bl3Llqr95cJkok5E-QFb-65" style="edgeStyle=orthogonalEdgeStyle;rounded=0;orthogonalLoop=1;jettySize=auto;html=1;exitX=0.5;exitY=1;exitDx=0;exitDy=0;entryX=0.5;entryY=0;entryDx=0;entryDy=0;" edge="1" parent="1" source="bl3Llqr95cJkok5E-QFb-27" target="bl3Llqr95cJkok5E-QFb-29">
          <mxGeometry relative="1" as="geometry" />
        </mxCell>
        <mxCell id="bl3Llqr95cJkok5E-QFb-27" value="BasicBlock" style="rounded=1;whiteSpace=wrap;html=1;fillColor=#A680B8;" vertex="1" parent="1">
          <mxGeometry x="260" y="25" width="120" height="30" as="geometry" />
        </mxCell>
        <mxCell id="bl3Llqr95cJkok5E-QFb-29" value="BasicBlock" style="rounded=1;whiteSpace=wrap;html=1;fillColor=#A680B8;" vertex="1" parent="1">
          <mxGeometry x="260" y="67.5" width="120" height="30" as="geometry" />
        </mxCell>
        <mxCell id="bl3Llqr95cJkok5E-QFb-100" style="edgeStyle=orthogonalEdgeStyle;rounded=0;orthogonalLoop=1;jettySize=auto;html=1;exitX=0.5;exitY=1;exitDx=0;exitDy=0;entryX=0.5;entryY=0;entryDx=0;entryDy=0;" edge="1" parent="1" source="bl3Llqr95cJkok5E-QFb-31" target="bl3Llqr95cJkok5E-QFb-32">
          <mxGeometry relative="1" as="geometry" />
        </mxCell>
        <mxCell id="bl3Llqr95cJkok5E-QFb-31" value="BasicBlock" style="rounded=1;whiteSpace=wrap;html=1;fillColor=#A680B8;" vertex="1" parent="1">
          <mxGeometry x="260" y="300" width="120" height="30" as="geometry" />
        </mxCell>
        <mxCell id="bl3Llqr95cJkok5E-QFb-32" value="BasicBlock" style="rounded=1;whiteSpace=wrap;html=1;fillColor=#A680B8;" vertex="1" parent="1">
          <mxGeometry x="260" y="350" width="120" height="30" as="geometry" />
        </mxCell>
        <mxCell id="bl3Llqr95cJkok5E-QFb-101" style="edgeStyle=orthogonalEdgeStyle;rounded=0;orthogonalLoop=1;jettySize=auto;html=1;exitX=0.5;exitY=1;exitDx=0;exitDy=0;entryX=0.5;entryY=0;entryDx=0;entryDy=0;movable=1;resizable=1;rotatable=1;deletable=1;editable=1;locked=0;connectable=1;" edge="1" parent="1" source="bl3Llqr95cJkok5E-QFb-33" target="bl3Llqr95cJkok5E-QFb-35">
          <mxGeometry relative="1" as="geometry" />
        </mxCell>
        <mxCell id="bl3Llqr95cJkok5E-QFb-33" value="DownBlock" style="rounded=1;whiteSpace=wrap;html=1;fillColor=#6D5379;movable=1;resizable=1;rotatable=1;deletable=1;editable=1;locked=0;connectable=1;" vertex="1" parent="1">
          <mxGeometry x="260" y="512.5" width="120" height="30" as="geometry" />
        </mxCell>
        <mxCell id="bl3Llqr95cJkok5E-QFb-103" style="edgeStyle=orthogonalEdgeStyle;rounded=0;orthogonalLoop=1;jettySize=auto;html=1;exitX=0.5;exitY=1;exitDx=0;exitDy=0;entryX=0.5;entryY=0;entryDx=0;entryDy=0;movable=1;resizable=1;rotatable=1;deletable=1;editable=1;locked=0;connectable=1;" edge="1" parent="1" source="bl3Llqr95cJkok5E-QFb-34" target="bl3Llqr95cJkok5E-QFb-37">
          <mxGeometry relative="1" as="geometry" />
        </mxCell>
        <mxCell id="bl3Llqr95cJkok5E-QFb-34" value="BasicBlock" style="rounded=1;whiteSpace=wrap;html=1;fillColor=#A680B8;movable=1;resizable=1;rotatable=1;deletable=1;editable=1;locked=0;connectable=1;" vertex="1" parent="1">
          <mxGeometry x="260" y="612.5" width="120" height="30" as="geometry" />
        </mxCell>
        <mxCell id="bl3Llqr95cJkok5E-QFb-102" style="edgeStyle=orthogonalEdgeStyle;rounded=0;orthogonalLoop=1;jettySize=auto;html=1;exitX=0.5;exitY=1;exitDx=0;exitDy=0;entryX=0.5;entryY=0;entryDx=0;entryDy=0;movable=1;resizable=1;rotatable=1;deletable=1;editable=1;locked=0;connectable=1;" edge="1" parent="1" source="bl3Llqr95cJkok5E-QFb-35" target="bl3Llqr95cJkok5E-QFb-34">
          <mxGeometry relative="1" as="geometry" />
        </mxCell>
        <mxCell id="bl3Llqr95cJkok5E-QFb-35" value="BasicBlock" style="rounded=1;whiteSpace=wrap;html=1;fillColor=#A680B8;movable=1;resizable=1;rotatable=1;deletable=1;editable=1;locked=0;connectable=1;" vertex="1" parent="1">
          <mxGeometry x="260" y="562.5" width="120" height="30" as="geometry" />
        </mxCell>
        <mxCell id="bl3Llqr95cJkok5E-QFb-104" style="edgeStyle=orthogonalEdgeStyle;rounded=0;orthogonalLoop=1;jettySize=auto;html=1;exitX=0.5;exitY=1;exitDx=0;exitDy=0;entryX=0.5;entryY=0;entryDx=0;entryDy=0;movable=1;resizable=1;rotatable=1;deletable=1;editable=1;locked=0;connectable=1;" edge="1" parent="1" source="bl3Llqr95cJkok5E-QFb-37" target="bl3Llqr95cJkok5E-QFb-38">
          <mxGeometry relative="1" as="geometry" />
        </mxCell>
        <mxCell id="bl3Llqr95cJkok5E-QFb-37" value="BasicBlock" style="rounded=1;whiteSpace=wrap;html=1;fillColor=#A680B8;movable=1;resizable=1;rotatable=1;deletable=1;editable=1;locked=0;connectable=1;" vertex="1" parent="1">
          <mxGeometry x="260" y="662.5" width="120" height="30" as="geometry" />
        </mxCell>
        <mxCell id="bl3Llqr95cJkok5E-QFb-105" style="edgeStyle=orthogonalEdgeStyle;rounded=0;orthogonalLoop=1;jettySize=auto;html=1;exitX=0.5;exitY=1;exitDx=0;exitDy=0;entryX=0.5;entryY=0;entryDx=0;entryDy=0;movable=1;resizable=1;rotatable=1;deletable=1;editable=1;locked=0;connectable=1;" edge="1" parent="1" source="bl3Llqr95cJkok5E-QFb-38" target="bl3Llqr95cJkok5E-QFb-39">
          <mxGeometry relative="1" as="geometry" />
        </mxCell>
        <mxCell id="bl3Llqr95cJkok5E-QFb-38" value="BasicBlock" style="rounded=1;whiteSpace=wrap;html=1;fillColor=#A680B8;movable=1;resizable=1;rotatable=1;deletable=1;editable=1;locked=0;connectable=1;" vertex="1" parent="1">
          <mxGeometry x="260" y="712.5" width="120" height="30" as="geometry" />
        </mxCell>
        <mxCell id="bl3Llqr95cJkok5E-QFb-39" value="BasicBlock" style="rounded=1;whiteSpace=wrap;html=1;fillColor=#A680B8;movable=1;resizable=1;rotatable=1;deletable=1;editable=1;locked=0;connectable=1;" vertex="1" parent="1">
          <mxGeometry x="260" y="756.25" width="120" height="30" as="geometry" />
        </mxCell>
        <mxCell id="bl3Llqr95cJkok5E-QFb-40" value="&lt;div&gt;&lt;font style=&quot;font-size: 14px;&quot;&gt;Basic Block&lt;/font&gt;&lt;/div&gt;&lt;div&gt;&lt;font style=&quot;font-size: 14px;&quot;&gt;&lt;br&gt;&lt;/font&gt;&lt;/div&gt;&lt;div&gt;&lt;font size=&quot;3&quot;&gt;&lt;br&gt;&lt;/font&gt;&lt;/div&gt;&lt;div&gt;&lt;font size=&quot;3&quot;&gt;&lt;br&gt;&lt;/font&gt;&lt;/div&gt;&lt;div&gt;&lt;font size=&quot;3&quot;&gt;&lt;br&gt;&lt;/font&gt;&lt;/div&gt;&lt;div&gt;&lt;font size=&quot;3&quot;&gt;&lt;br&gt;&lt;/font&gt;&lt;/div&gt;&lt;div&gt;&lt;font size=&quot;3&quot;&gt;&lt;br&gt;&lt;/font&gt;&lt;/div&gt;&lt;div&gt;&lt;font size=&quot;3&quot;&gt;&lt;br&gt;&lt;/font&gt;&lt;/div&gt;&lt;div&gt;&lt;font size=&quot;3&quot;&gt;&lt;br&gt;&lt;/font&gt;&lt;/div&gt;&lt;div&gt;&lt;font size=&quot;3&quot;&gt;&lt;br&gt;&lt;/font&gt;&lt;/div&gt;&lt;div&gt;&lt;font size=&quot;3&quot;&gt;&lt;br&gt;&lt;/font&gt;&lt;/div&gt;&lt;div&gt;&lt;font size=&quot;3&quot;&gt;&lt;br&gt;&lt;/font&gt;&lt;/div&gt;&lt;div&gt;&lt;font size=&quot;3&quot;&gt;&lt;br&gt;&lt;/font&gt;&lt;/div&gt;&lt;div&gt;&lt;font size=&quot;3&quot;&gt;&lt;br&gt;&lt;/font&gt;&lt;/div&gt;" style="rounded=1;whiteSpace=wrap;html=1;fillColor=#A680B8;" vertex="1" parent="1">
          <mxGeometry x="-180" y="90" width="200" height="300" as="geometry" />
        </mxCell>
        <mxCell id="bl3Llqr95cJkok5E-QFb-49" style="edgeStyle=orthogonalEdgeStyle;rounded=0;orthogonalLoop=1;jettySize=auto;html=1;exitX=1;exitY=0.5;exitDx=0;exitDy=0;entryX=1;entryY=0.5;entryDx=0;entryDy=0;" edge="1" parent="1" source="bl3Llqr95cJkok5E-QFb-51" target="bl3Llqr95cJkok5E-QFb-45">
          <mxGeometry relative="1" as="geometry" />
        </mxCell>
        <mxCell id="bl3Llqr95cJkok5E-QFb-59" style="edgeStyle=orthogonalEdgeStyle;rounded=0;orthogonalLoop=1;jettySize=auto;html=1;exitX=0.5;exitY=1;exitDx=0;exitDy=0;entryX=0.5;entryY=0;entryDx=0;entryDy=0;" edge="1" parent="1" source="bl3Llqr95cJkok5E-QFb-43" target="bl3Llqr95cJkok5E-QFb-44">
          <mxGeometry relative="1" as="geometry" />
        </mxCell>
        <mxCell id="bl3Llqr95cJkok5E-QFb-43" value="Conv2d" style="rounded=1;whiteSpace=wrap;html=1;fillColor=#FFD966;" vertex="1" parent="1">
          <mxGeometry x="-160" y="150" width="120" height="30" as="geometry" />
        </mxCell>
        <mxCell id="bl3Llqr95cJkok5E-QFb-60" style="edgeStyle=orthogonalEdgeStyle;rounded=0;orthogonalLoop=1;jettySize=auto;html=1;exitX=0.5;exitY=1;exitDx=0;exitDy=0;entryX=0.5;entryY=0;entryDx=0;entryDy=0;" edge="1" parent="1" source="bl3Llqr95cJkok5E-QFb-44" target="bl3Llqr95cJkok5E-QFb-45">
          <mxGeometry relative="1" as="geometry" />
        </mxCell>
        <mxCell id="bl3Llqr95cJkok5E-QFb-44" value="BatchNorm" style="rounded=1;whiteSpace=wrap;html=1;fillColor=#FF6666;" vertex="1" parent="1">
          <mxGeometry x="-160" y="200" width="120" height="30" as="geometry" />
        </mxCell>
        <mxCell id="bl3Llqr95cJkok5E-QFb-61" style="edgeStyle=orthogonalEdgeStyle;rounded=0;orthogonalLoop=1;jettySize=auto;html=1;exitX=0.5;exitY=1;exitDx=0;exitDy=0;entryX=0.5;entryY=0;entryDx=0;entryDy=0;" edge="1" parent="1" source="bl3Llqr95cJkok5E-QFb-45" target="bl3Llqr95cJkok5E-QFb-46">
          <mxGeometry relative="1" as="geometry" />
        </mxCell>
        <mxCell id="bl3Llqr95cJkok5E-QFb-45" value="ReLU" style="rounded=1;whiteSpace=wrap;html=1;fillColor=#FF66FF;" vertex="1" parent="1">
          <mxGeometry x="-160" y="250" width="120" height="30" as="geometry" />
        </mxCell>
        <mxCell id="bl3Llqr95cJkok5E-QFb-62" style="edgeStyle=orthogonalEdgeStyle;rounded=0;orthogonalLoop=1;jettySize=auto;html=1;exitX=0.5;exitY=1;exitDx=0;exitDy=0;entryX=0.5;entryY=0;entryDx=0;entryDy=0;" edge="1" parent="1" source="bl3Llqr95cJkok5E-QFb-46" target="bl3Llqr95cJkok5E-QFb-47">
          <mxGeometry relative="1" as="geometry" />
        </mxCell>
        <mxCell id="bl3Llqr95cJkok5E-QFb-46" value="Conv2d" style="rounded=1;whiteSpace=wrap;html=1;fillColor=#FFD966;" vertex="1" parent="1">
          <mxGeometry x="-160" y="300" width="120" height="30" as="geometry" />
        </mxCell>
        <mxCell id="bl3Llqr95cJkok5E-QFb-57" style="edgeStyle=orthogonalEdgeStyle;rounded=0;orthogonalLoop=1;jettySize=auto;html=1;exitX=0.5;exitY=1;exitDx=0;exitDy=0;entryX=0.5;entryY=0;entryDx=0;entryDy=0;" edge="1" parent="1" source="bl3Llqr95cJkok5E-QFb-47" target="bl3Llqr95cJkok5E-QFb-56">
          <mxGeometry relative="1" as="geometry" />
        </mxCell>
        <mxCell id="bl3Llqr95cJkok5E-QFb-47" value="BatchNorm" style="rounded=1;whiteSpace=wrap;html=1;fillColor=#FF6666;" vertex="1" parent="1">
          <mxGeometry x="-160" y="350" width="120" height="30" as="geometry" />
        </mxCell>
        <mxCell id="bl3Llqr95cJkok5E-QFb-54" style="edgeStyle=orthogonalEdgeStyle;rounded=0;orthogonalLoop=1;jettySize=auto;html=1;exitX=0.5;exitY=1;exitDx=0;exitDy=0;entryX=0.5;entryY=0;entryDx=0;entryDy=0;" edge="1" parent="1" source="bl3Llqr95cJkok5E-QFb-51" target="bl3Llqr95cJkok5E-QFb-43">
          <mxGeometry relative="1" as="geometry">
            <Array as="points">
              <mxPoint x="-100" y="80" />
            </Array>
          </mxGeometry>
        </mxCell>
        <mxCell id="bl3Llqr95cJkok5E-QFb-55" style="edgeStyle=orthogonalEdgeStyle;rounded=0;orthogonalLoop=1;jettySize=auto;html=1;exitX=0;exitY=0.5;exitDx=0;exitDy=0;entryX=-0.025;entryY=0.588;entryDx=0;entryDy=0;entryPerimeter=0;" edge="1" parent="1" source="bl3Llqr95cJkok5E-QFb-51" target="bl3Llqr95cJkok5E-QFb-56">
          <mxGeometry relative="1" as="geometry">
            <mxPoint x="-180" y="470" as="targetPoint" />
            <Array as="points">
              <mxPoint x="-210" y="30" />
              <mxPoint x="-210" y="470" />
              <mxPoint x="-142" y="470" />
            </Array>
          </mxGeometry>
        </mxCell>
        <mxCell id="bl3Llqr95cJkok5E-QFb-51" value="X [N,C, H,W]" style="ellipse;whiteSpace=wrap;html=1;aspect=fixed;" vertex="1" parent="1">
          <mxGeometry x="-140" y="-10" width="80" height="80" as="geometry" />
        </mxCell>
        <mxCell id="bl3Llqr95cJkok5E-QFb-56" value="Y [N,C,H,W]" style="ellipse;whiteSpace=wrap;html=1;aspect=fixed;" vertex="1" parent="1">
          <mxGeometry x="-140" y="430" width="80" height="80" as="geometry" />
        </mxCell>
        <mxCell id="bl3Llqr95cJkok5E-QFb-108" style="edgeStyle=orthogonalEdgeStyle;rounded=0;orthogonalLoop=1;jettySize=auto;html=1;exitX=0.5;exitY=1;exitDx=0;exitDy=0;entryX=0.5;entryY=0;entryDx=0;entryDy=0;movable=1;resizable=1;rotatable=1;deletable=1;editable=1;locked=0;connectable=1;" edge="1" parent="1" source="bl3Llqr95cJkok5E-QFb-68" target="bl3Llqr95cJkok5E-QFb-69">
          <mxGeometry relative="1" as="geometry" />
        </mxCell>
        <mxCell id="bl3Llqr95cJkok5E-QFb-68" value="BasicBlock" style="rounded=1;whiteSpace=wrap;html=1;fillColor=#A680B8;movable=1;resizable=1;rotatable=1;deletable=1;editable=1;locked=0;connectable=1;" vertex="1" parent="1">
          <mxGeometry x="260" y="985" width="120" height="30" as="geometry" />
        </mxCell>
        <mxCell id="bl3Llqr95cJkok5E-QFb-69" value="BasicBlock" style="rounded=1;whiteSpace=wrap;html=1;fillColor=#A680B8;movable=1;resizable=1;rotatable=1;deletable=1;editable=1;locked=0;connectable=1;" vertex="1" parent="1">
          <mxGeometry x="260" y="1030" width="120" height="30" as="geometry" />
        </mxCell>
        <mxCell id="bl3Llqr95cJkok5E-QFb-70" value="&lt;div&gt;&lt;font style=&quot;font-size: 14px;&quot;&gt;Down Block&lt;/font&gt;&lt;/div&gt;&lt;div&gt;&lt;font style=&quot;font-size: 14px;&quot;&gt;&lt;br&gt;&lt;/font&gt;&lt;/div&gt;&lt;div&gt;&lt;font size=&quot;3&quot;&gt;&lt;br&gt;&lt;/font&gt;&lt;/div&gt;&lt;div&gt;&lt;font size=&quot;3&quot;&gt;&lt;br&gt;&lt;/font&gt;&lt;/div&gt;&lt;div&gt;&lt;font size=&quot;3&quot;&gt;&lt;br&gt;&lt;/font&gt;&lt;/div&gt;&lt;div&gt;&lt;font size=&quot;3&quot;&gt;&lt;br&gt;&lt;/font&gt;&lt;/div&gt;&lt;div&gt;&lt;font size=&quot;3&quot;&gt;&lt;br&gt;&lt;/font&gt;&lt;/div&gt;&lt;div&gt;&lt;font size=&quot;3&quot;&gt;&lt;br&gt;&lt;/font&gt;&lt;/div&gt;&lt;div&gt;&lt;font size=&quot;3&quot;&gt;&lt;br&gt;&lt;/font&gt;&lt;/div&gt;&lt;div&gt;&lt;font size=&quot;3&quot;&gt;&lt;br&gt;&lt;/font&gt;&lt;/div&gt;&lt;div&gt;&lt;font size=&quot;3&quot;&gt;&lt;br&gt;&lt;/font&gt;&lt;/div&gt;&lt;div&gt;&lt;font size=&quot;3&quot;&gt;&lt;br&gt;&lt;/font&gt;&lt;/div&gt;&lt;div&gt;&lt;font size=&quot;3&quot;&gt;&lt;br&gt;&lt;/font&gt;&lt;/div&gt;&lt;div&gt;&lt;font size=&quot;3&quot;&gt;&lt;br&gt;&lt;/font&gt;&lt;/div&gt;" style="rounded=1;whiteSpace=wrap;html=1;fillColor=#6D5379;" vertex="1" parent="1">
          <mxGeometry x="-620" y="172.5" width="370" height="300" as="geometry" />
        </mxCell>
        <mxCell id="bl3Llqr95cJkok5E-QFb-72" style="edgeStyle=orthogonalEdgeStyle;rounded=0;orthogonalLoop=1;jettySize=auto;html=1;exitX=0.5;exitY=1;exitDx=0;exitDy=0;entryX=0.5;entryY=0;entryDx=0;entryDy=0;" edge="1" parent="1" source="bl3Llqr95cJkok5E-QFb-73" target="bl3Llqr95cJkok5E-QFb-75">
          <mxGeometry relative="1" as="geometry" />
        </mxCell>
        <mxCell id="bl3Llqr95cJkok5E-QFb-73" value="DownConv2d" style="rounded=1;whiteSpace=wrap;html=1;fillColor=#FFB657;" vertex="1" parent="1">
          <mxGeometry x="-430" y="232.5" width="120" height="30" as="geometry" />
        </mxCell>
        <mxCell id="bl3Llqr95cJkok5E-QFb-74" style="edgeStyle=orthogonalEdgeStyle;rounded=0;orthogonalLoop=1;jettySize=auto;html=1;exitX=0.5;exitY=1;exitDx=0;exitDy=0;entryX=0.5;entryY=0;entryDx=0;entryDy=0;" edge="1" parent="1" source="bl3Llqr95cJkok5E-QFb-75" target="bl3Llqr95cJkok5E-QFb-77">
          <mxGeometry relative="1" as="geometry" />
        </mxCell>
        <mxCell id="bl3Llqr95cJkok5E-QFb-75" value="BatchNorm" style="rounded=1;whiteSpace=wrap;html=1;fillColor=#FF6666;" vertex="1" parent="1">
          <mxGeometry x="-430" y="282.5" width="120" height="30" as="geometry" />
        </mxCell>
        <mxCell id="bl3Llqr95cJkok5E-QFb-76" style="edgeStyle=orthogonalEdgeStyle;rounded=0;orthogonalLoop=1;jettySize=auto;html=1;exitX=0.5;exitY=1;exitDx=0;exitDy=0;entryX=0.5;entryY=0;entryDx=0;entryDy=0;" edge="1" parent="1" source="bl3Llqr95cJkok5E-QFb-77" target="bl3Llqr95cJkok5E-QFb-79">
          <mxGeometry relative="1" as="geometry" />
        </mxCell>
        <mxCell id="bl3Llqr95cJkok5E-QFb-77" value="ReLU" style="rounded=1;whiteSpace=wrap;html=1;fillColor=#FF66FF;" vertex="1" parent="1">
          <mxGeometry x="-430" y="332.5" width="120" height="30" as="geometry" />
        </mxCell>
        <mxCell id="bl3Llqr95cJkok5E-QFb-78" style="edgeStyle=orthogonalEdgeStyle;rounded=0;orthogonalLoop=1;jettySize=auto;html=1;exitX=0.5;exitY=1;exitDx=0;exitDy=0;entryX=0.5;entryY=0;entryDx=0;entryDy=0;" edge="1" parent="1" source="bl3Llqr95cJkok5E-QFb-79" target="bl3Llqr95cJkok5E-QFb-81">
          <mxGeometry relative="1" as="geometry" />
        </mxCell>
        <mxCell id="bl3Llqr95cJkok5E-QFb-79" value="Conv2d" style="rounded=1;whiteSpace=wrap;html=1;fillColor=#FFD966;" vertex="1" parent="1">
          <mxGeometry x="-430" y="382.5" width="120" height="30" as="geometry" />
        </mxCell>
        <mxCell id="bl3Llqr95cJkok5E-QFb-80" style="edgeStyle=orthogonalEdgeStyle;rounded=0;orthogonalLoop=1;jettySize=auto;html=1;exitX=0.5;exitY=1;exitDx=0;exitDy=0;entryX=0.5;entryY=0;entryDx=0;entryDy=0;" edge="1" parent="1" source="bl3Llqr95cJkok5E-QFb-81" target="bl3Llqr95cJkok5E-QFb-85">
          <mxGeometry relative="1" as="geometry" />
        </mxCell>
        <mxCell id="bl3Llqr95cJkok5E-QFb-81" value="BatchNorm" style="rounded=1;whiteSpace=wrap;html=1;fillColor=#FF6666;" vertex="1" parent="1">
          <mxGeometry x="-430" y="432.5" width="120" height="30" as="geometry" />
        </mxCell>
        <mxCell id="bl3Llqr95cJkok5E-QFb-82" style="edgeStyle=orthogonalEdgeStyle;rounded=0;orthogonalLoop=1;jettySize=auto;html=1;exitX=0.5;exitY=1;exitDx=0;exitDy=0;entryX=0.5;entryY=0;entryDx=0;entryDy=0;" edge="1" parent="1" source="bl3Llqr95cJkok5E-QFb-84" target="bl3Llqr95cJkok5E-QFb-73">
          <mxGeometry relative="1" as="geometry">
            <Array as="points">
              <mxPoint x="-370" y="162.5" />
            </Array>
          </mxGeometry>
        </mxCell>
        <mxCell id="bl3Llqr95cJkok5E-QFb-90" style="edgeStyle=orthogonalEdgeStyle;rounded=0;orthogonalLoop=1;jettySize=auto;html=1;exitX=0;exitY=0.5;exitDx=0;exitDy=0;entryX=0.5;entryY=0;entryDx=0;entryDy=0;" edge="1" parent="1" source="bl3Llqr95cJkok5E-QFb-84" target="bl3Llqr95cJkok5E-QFb-88">
          <mxGeometry relative="1" as="geometry" />
        </mxCell>
        <mxCell id="bl3Llqr95cJkok5E-QFb-84" value="X [N,C, H,W]" style="ellipse;whiteSpace=wrap;html=1;aspect=fixed;" vertex="1" parent="1">
          <mxGeometry x="-490" y="67.5" width="80" height="80" as="geometry" />
        </mxCell>
        <mxCell id="bl3Llqr95cJkok5E-QFb-85" value="Y [N,C*2,H/2,W/2]" style="ellipse;whiteSpace=wrap;html=1;aspect=fixed;" vertex="1" parent="1">
          <mxGeometry x="-438.75" y="566.25" width="137.5" height="137.5" as="geometry" />
        </mxCell>
        <mxCell id="bl3Llqr95cJkok5E-QFb-92" style="edgeStyle=orthogonalEdgeStyle;rounded=0;orthogonalLoop=1;jettySize=auto;html=1;exitX=0.5;exitY=1;exitDx=0;exitDy=0;entryX=0.5;entryY=0;entryDx=0;entryDy=0;" edge="1" parent="1" source="bl3Llqr95cJkok5E-QFb-88" target="bl3Llqr95cJkok5E-QFb-89">
          <mxGeometry relative="1" as="geometry" />
        </mxCell>
        <mxCell id="bl3Llqr95cJkok5E-QFb-88" value="DownConv2d" style="rounded=1;whiteSpace=wrap;html=1;fillColor=#FFB657;" vertex="1" parent="1">
          <mxGeometry x="-590" y="232.5" width="120" height="30" as="geometry" />
        </mxCell>
        <mxCell id="bl3Llqr95cJkok5E-QFb-93" style="edgeStyle=orthogonalEdgeStyle;rounded=0;orthogonalLoop=1;jettySize=auto;html=1;exitX=0.5;exitY=1;exitDx=0;exitDy=0;entryX=0;entryY=0.5;entryDx=0;entryDy=0;" edge="1" parent="1" source="bl3Llqr95cJkok5E-QFb-89" target="bl3Llqr95cJkok5E-QFb-85">
          <mxGeometry relative="1" as="geometry" />
        </mxCell>
        <mxCell id="bl3Llqr95cJkok5E-QFb-94" style="edgeStyle=orthogonalEdgeStyle;rounded=0;orthogonalLoop=1;jettySize=auto;html=1;exitX=1;exitY=0.5;exitDx=0;exitDy=0;entryX=0;entryY=0.5;entryDx=0;entryDy=0;" edge="1" parent="1" source="bl3Llqr95cJkok5E-QFb-89" target="bl3Llqr95cJkok5E-QFb-77">
          <mxGeometry relative="1" as="geometry" />
        </mxCell>
        <mxCell id="bl3Llqr95cJkok5E-QFb-89" value="BatchNorm" style="rounded=1;whiteSpace=wrap;html=1;fillColor=#FF6666;" vertex="1" parent="1">
          <mxGeometry x="-590" y="282.5" width="120" height="30" as="geometry" />
        </mxCell>
        <mxCell id="bl3Llqr95cJkok5E-QFb-99" style="edgeStyle=orthogonalEdgeStyle;rounded=0;orthogonalLoop=1;jettySize=auto;html=1;exitX=0.5;exitY=1;exitDx=0;exitDy=0;entryX=0.5;entryY=0;entryDx=0;entryDy=0;" edge="1" parent="1" source="bl3Llqr95cJkok5E-QFb-95" target="bl3Llqr95cJkok5E-QFb-31">
          <mxGeometry relative="1" as="geometry" />
        </mxCell>
        <mxCell id="bl3Llqr95cJkok5E-QFb-95" value="DownBlock" style="rounded=1;whiteSpace=wrap;html=1;fillColor=#6D5379;" vertex="1" parent="1">
          <mxGeometry x="260" y="250" width="120" height="30" as="geometry" />
        </mxCell>
        <mxCell id="bl3Llqr95cJkok5E-QFb-96" value="DownBlock" style="rounded=1;whiteSpace=wrap;html=1;fillColor=#6D5379;" vertex="1" parent="1">
          <mxGeometry x="260" y="-22.5" width="120" height="30" as="geometry" />
        </mxCell>
        <mxCell id="bl3Llqr95cJkok5E-QFb-107" style="edgeStyle=orthogonalEdgeStyle;rounded=0;orthogonalLoop=1;jettySize=auto;html=1;exitX=0.5;exitY=1;exitDx=0;exitDy=0;entryX=0.5;entryY=0;entryDx=0;entryDy=0;movable=1;resizable=1;rotatable=1;deletable=1;editable=1;locked=0;connectable=1;" edge="1" parent="1" source="bl3Llqr95cJkok5E-QFb-98" target="bl3Llqr95cJkok5E-QFb-68">
          <mxGeometry relative="1" as="geometry" />
        </mxCell>
        <mxCell id="bl3Llqr95cJkok5E-QFb-98" value="DownBlock" style="rounded=1;whiteSpace=wrap;html=1;fillColor=#6D5379;movable=1;resizable=1;rotatable=1;deletable=1;editable=1;locked=0;connectable=1;" vertex="1" parent="1">
          <mxGeometry x="260" y="940" width="120" height="30" as="geometry" />
        </mxCell>
        <mxCell id="bl3Llqr95cJkok5E-QFb-109" value="&lt;div&gt;UNET Decoder Block&lt;/div&gt;&lt;div&gt;&lt;br&gt;&lt;/div&gt;&lt;div&gt;&lt;br&gt;&lt;/div&gt;&lt;div&gt;&lt;br&gt;&lt;/div&gt;&lt;div&gt;&lt;br&gt;&lt;/div&gt;&lt;div&gt;&lt;br&gt;&lt;/div&gt;&lt;div&gt;&lt;br&gt;&lt;/div&gt;&lt;div&gt;&lt;br&gt;&lt;/div&gt;&lt;div&gt;&lt;br&gt;&lt;/div&gt;&lt;div&gt;&lt;br&gt;&lt;/div&gt;&lt;div&gt;&lt;br&gt;&lt;/div&gt;&lt;div&gt;&lt;br&gt;&lt;/div&gt;&lt;div&gt;&lt;br&gt;&lt;/div&gt;&lt;div&gt;&lt;br&gt;&lt;/div&gt;&lt;div&gt;&lt;br&gt;&lt;/div&gt;&lt;div&gt;&lt;br&gt;&lt;/div&gt;&lt;div&gt;&lt;br&gt;&lt;/div&gt;&lt;div&gt;&lt;br&gt;&lt;/div&gt;&lt;div&gt;&lt;br&gt;&lt;/div&gt;&lt;div&gt;&lt;br&gt;&lt;/div&gt;&lt;div&gt;&lt;br&gt;&lt;/div&gt;&lt;div&gt;&lt;br&gt;&lt;/div&gt;&lt;div&gt;&lt;br&gt;&lt;/div&gt;&lt;div&gt;&lt;br&gt;&lt;/div&gt;&lt;div&gt;&lt;br&gt;&lt;/div&gt;" style="rounded=1;whiteSpace=wrap;html=1;fillColor=#66FFFF;" vertex="1" parent="1">
          <mxGeometry x="-495" y="1010" width="150" height="390" as="geometry" />
        </mxCell>
        <mxCell id="bl3Llqr95cJkok5E-QFb-115" style="edgeStyle=orthogonalEdgeStyle;rounded=0;orthogonalLoop=1;jettySize=auto;html=1;exitX=0.5;exitY=0;exitDx=0;exitDy=0;entryX=0.5;entryY=1;entryDx=0;entryDy=0;" edge="1" parent="1" source="bl3Llqr95cJkok5E-QFb-110" target="bl3Llqr95cJkok5E-QFb-113">
          <mxGeometry relative="1" as="geometry" />
        </mxCell>
        <mxCell id="bl3Llqr95cJkok5E-QFb-110" value="X [N,C, H,W]" style="ellipse;whiteSpace=wrap;html=1;aspect=fixed;" vertex="1" parent="1">
          <mxGeometry x="-465" y="1420" width="80" height="80" as="geometry" />
        </mxCell>
        <mxCell id="bl3Llqr95cJkok5E-QFb-111" value="Y [N,C/2,H*2,W*2]" style="ellipse;whiteSpace=wrap;html=1;aspect=fixed;" vertex="1" parent="1">
          <mxGeometry x="-495" y="830" width="140" height="140" as="geometry" />
        </mxCell>
        <mxCell id="bl3Llqr95cJkok5E-QFb-117" style="edgeStyle=orthogonalEdgeStyle;rounded=0;orthogonalLoop=1;jettySize=auto;html=1;exitX=0.5;exitY=0;exitDx=0;exitDy=0;entryX=0.5;entryY=1;entryDx=0;entryDy=0;" edge="1" parent="1" source="bl3Llqr95cJkok5E-QFb-112" target="bl3Llqr95cJkok5E-QFb-111">
          <mxGeometry relative="1" as="geometry" />
        </mxCell>
        <mxCell id="bl3Llqr95cJkok5E-QFb-136" style="edgeStyle=orthogonalEdgeStyle;rounded=0;orthogonalLoop=1;jettySize=auto;html=1;exitX=0.5;exitY=0;exitDx=0;exitDy=0;entryX=0.5;entryY=1;entryDx=0;entryDy=0;" edge="1" parent="1" source="bl3Llqr95cJkok5E-QFb-112" target="bl3Llqr95cJkok5E-QFb-134">
          <mxGeometry relative="1" as="geometry" />
        </mxCell>
        <mxCell id="bl3Llqr95cJkok5E-QFb-112" value="Conv2d" style="rounded=1;whiteSpace=wrap;html=1;fillColor=#FFD966;" vertex="1" parent="1">
          <mxGeometry x="-485" y="1170" width="120" height="30" as="geometry" />
        </mxCell>
        <mxCell id="bl3Llqr95cJkok5E-QFb-126" style="edgeStyle=orthogonalEdgeStyle;rounded=0;orthogonalLoop=1;jettySize=auto;html=1;exitX=0.5;exitY=0;exitDx=0;exitDy=0;entryX=0.5;entryY=1;entryDx=0;entryDy=0;" edge="1" parent="1" source="bl3Llqr95cJkok5E-QFb-113" target="bl3Llqr95cJkok5E-QFb-122">
          <mxGeometry relative="1" as="geometry" />
        </mxCell>
        <mxCell id="bl3Llqr95cJkok5E-QFb-113" value="&lt;div&gt;UpConv2d&lt;/div&gt;" style="rounded=1;whiteSpace=wrap;html=1;fillColor=#FFFF57;" vertex="1" parent="1">
          <mxGeometry x="-485" y="1330" width="120" height="30" as="geometry" />
        </mxCell>
        <mxCell id="bl3Llqr95cJkok5E-QFb-114" style="edgeStyle=orthogonalEdgeStyle;rounded=0;orthogonalLoop=1;jettySize=auto;html=1;exitX=0.5;exitY=1;exitDx=0;exitDy=0;" edge="1" parent="1">
          <mxGeometry relative="1" as="geometry">
            <mxPoint x="-425" y="1400" as="sourcePoint" />
            <mxPoint x="-425" y="1400" as="targetPoint" />
          </mxGeometry>
        </mxCell>
        <mxCell id="bl3Llqr95cJkok5E-QFb-118" value="&lt;div&gt;[N,32,256,256]&lt;/div&gt;" style="ellipse;whiteSpace=wrap;html=1;aspect=fixed;" vertex="1" parent="1">
          <mxGeometry x="280" y="-160" width="80" height="80" as="geometry" />
        </mxCell>
        <mxCell id="bl3Llqr95cJkok5E-QFb-119" value="[N,64,128,128]" style="ellipse;whiteSpace=wrap;html=1;aspect=fixed;" vertex="1" parent="1">
          <mxGeometry x="280" y="125" width="80" height="80" as="geometry" />
        </mxCell>
        <mxCell id="bl3Llqr95cJkok5E-QFb-120" value="[N,128,64,64]" style="ellipse;whiteSpace=wrap;html=1;aspect=fixed;" vertex="1" parent="1">
          <mxGeometry x="280" y="392.5" width="80" height="80" as="geometry" />
        </mxCell>
        <mxCell id="bl3Llqr95cJkok5E-QFb-121" value="[N,256,32,32]" style="ellipse;whiteSpace=wrap;html=1;aspect=fixed;" vertex="1" parent="1">
          <mxGeometry x="280" y="810" width="80" height="80" as="geometry" />
        </mxCell>
        <mxCell id="bl3Llqr95cJkok5E-QFb-128" value="" style="edgeStyle=orthogonalEdgeStyle;rounded=0;orthogonalLoop=1;jettySize=auto;html=1;" edge="1" parent="1" source="bl3Llqr95cJkok5E-QFb-122" target="bl3Llqr95cJkok5E-QFb-123">
          <mxGeometry relative="1" as="geometry" />
        </mxCell>
        <mxCell id="bl3Llqr95cJkok5E-QFb-122" value="BatchNorm" style="rounded=1;whiteSpace=wrap;html=1;fillColor=#FF6666;" vertex="1" parent="1">
          <mxGeometry x="-485" y="1270" width="120" height="30" as="geometry" />
        </mxCell>
        <mxCell id="bl3Llqr95cJkok5E-QFb-132" style="edgeStyle=orthogonalEdgeStyle;rounded=0;orthogonalLoop=1;jettySize=auto;html=1;exitX=0.5;exitY=0;exitDx=0;exitDy=0;entryX=0.5;entryY=1;entryDx=0;entryDy=0;" edge="1" parent="1" source="bl3Llqr95cJkok5E-QFb-123" target="bl3Llqr95cJkok5E-QFb-112">
          <mxGeometry relative="1" as="geometry" />
        </mxCell>
        <mxCell id="bl3Llqr95cJkok5E-QFb-123" value="ReLU" style="rounded=1;whiteSpace=wrap;html=1;fillColor=#FF66FF;" vertex="1" parent="1">
          <mxGeometry x="-485" y="1220" width="120" height="30" as="geometry" />
        </mxCell>
        <mxCell id="bl3Llqr95cJkok5E-QFb-133" value="" style="edgeStyle=orthogonalEdgeStyle;rounded=0;orthogonalLoop=1;jettySize=auto;html=1;" edge="1" parent="1" source="bl3Llqr95cJkok5E-QFb-134" target="bl3Llqr95cJkok5E-QFb-135">
          <mxGeometry relative="1" as="geometry" />
        </mxCell>
        <mxCell id="bl3Llqr95cJkok5E-QFb-134" value="BatchNorm" style="rounded=1;whiteSpace=wrap;html=1;fillColor=#FF6666;" vertex="1" parent="1">
          <mxGeometry x="-485" y="1120" width="120" height="30" as="geometry" />
        </mxCell>
        <mxCell id="bl3Llqr95cJkok5E-QFb-135" value="ReLU" style="rounded=1;whiteSpace=wrap;html=1;fillColor=#FF66FF;" vertex="1" parent="1">
          <mxGeometry x="-485" y="1070" width="120" height="30" as="geometry" />
        </mxCell>
        <mxCell id="bl3Llqr95cJkok5E-QFb-138" style="edgeStyle=orthogonalEdgeStyle;rounded=0;orthogonalLoop=1;jettySize=auto;html=1;exitX=0;exitY=0;exitDx=0;exitDy=0;entryX=0;entryY=0.25;entryDx=0;entryDy=0;" edge="1" parent="1" source="bl3Llqr95cJkok5E-QFb-135" target="bl3Llqr95cJkok5E-QFb-135">
          <mxGeometry relative="1" as="geometry" />
        </mxCell>
        <mxCell id="bl3Llqr95cJkok5E-QFb-140" value="Decoder Block" style="rounded=1;whiteSpace=wrap;html=1;fillColor=#66FFFF;" vertex="1" parent="1">
          <mxGeometry x="570" y="910" width="140" height="190" as="geometry" />
        </mxCell>
        <mxCell id="bl3Llqr95cJkok5E-QFb-144" value="Decoder Block" style="rounded=1;whiteSpace=wrap;html=1;fillColor=#66FFFF;" vertex="1" parent="1">
          <mxGeometry x="560" y="540" width="140" height="190" as="geometry" />
        </mxCell>
        <mxCell id="bl3Llqr95cJkok5E-QFb-145" value="Decoder Block" style="rounded=1;whiteSpace=wrap;html=1;fillColor=#66FFFF;" vertex="1" parent="1">
          <mxGeometry x="570" y="202.5" width="140" height="190" as="geometry" />
        </mxCell>
        <mxCell id="bl3Llqr95cJkok5E-QFb-146" value="Decoder Block 4" style="rounded=1;whiteSpace=wrap;html=1;fillColor=#66FFFF;" vertex="1" parent="1">
          <mxGeometry x="570" y="-80" width="140" height="190" as="geometry" />
        </mxCell>
        <mxCell id="bl3Llqr95cJkok5E-QFb-147" value="&lt;div&gt;[N,3,512,512]&lt;/div&gt;" style="ellipse;whiteSpace=wrap;html=1;aspect=fixed;" vertex="1" parent="1">
          <mxGeometry x="280" y="-310" width="80" height="80" as="geometry" />
        </mxCell>
        <mxCell id="bl3Llqr95cJkok5E-QFb-149" value="[N,512,16,16]" style="ellipse;whiteSpace=wrap;html=1;aspect=fixed;" vertex="1" parent="1">
          <mxGeometry x="280" y="1120" width="80" height="80" as="geometry" />
        </mxCell>
      </root>
    </mxGraphModel>
  </diagram>
</mxfile>
